<?xml version="1.0" standalone="no"?>
<!DOCTYPE svg PUBLIC "-//W3C//DTD SVG 20010904//EN"
 "http://www.w3.org/TR/2001/REC-SVG-20010904/DTD/svg10.dtd">
<svg version="1.0" xmlns="http://www.w3.org/2000/svg"
 width="2483.000000pt" height="2483.000000pt" viewBox="0 0 2483.000000 2483.000000"
 preserveAspectRatio="xMidYMid meet">

<g transform="translate(0.000000,2483.000000) scale(0.100000,-0.100000)"
fill="#000000" stroke="none">
<path d="M12045 24814 c-239 -10 -520 -27 -675 -40 -3307 -275 -6354 -1863
-8488 -4421 -980 -1175 -1729 -2509 -2222 -3958 -313 -922 -516 -1885 -604
-2875 -37 -407 -41 -530 -41 -1120 1 -710 21 -1034 101 -1640 219 -1661 790
-3292 1657 -4733 718 -1193 1620 -2245 2697 -3146 1272 -1065 2772 -1873 4360
-2351 1498 -450 3080 -613 4655 -480 1812 154 3574 711 5155 1628 739 429
1422 927 2090 1526 205 184 748 729 931 936 509 575 894 1088 1284 1711 410
654 794 1427 1070 2154 449 1184 696 2346 787 3700 17 254 17 1159 0 1410 -43
636 -101 1106 -203 1640 -536 2802 -2029 5335 -4233 7179 -1190 995 -2564
1762 -4031 2251 -1024 341 -2050 538 -3168 610 -219 14 -948 27 -1122 19z
m2975 -8104 c2168 -25 3506 -67 5035 -161 1280 -78 2068 -166 2440 -274 97
-28 149 -56 166 -86 11 -21 3 -121 -12 -151 -22 -41 -162 -229 -182 -243 -12
-8 -40 -15 -64 -15 -23 0 -44 -4 -47 -9 -10 -15 35 -20 134 -14 l96 6 37 -51
c97 -131 122 -267 73 -396 -20 -52 -26 -87 -26 -146 0 -43 -7 -96 -15 -120
-22 -62 -19 -93 20 -205 19 -55 41 -146 50 -203 15 -104 32 -148 79 -211 43
-57 30 -109 -41 -171 -60 -53 -76 -79 -84 -137 -4 -30 -16 -64 -26 -75 -26
-30 -238 -166 -313 -202 -40 -19 -80 -30 -105 -30 -51 1 -402 21 -605 35 -85
6 -216 14 -290 19 -74 5 -189 18 -255 29 -130 23 -156 25 -139 13 15 -10 50
-131 64 -217 11 -70 19 -86 105 -210 l39 -57 -67 -64 c-75 -70 -81 -82 -91
-174 -4 -35 -12 -72 -17 -82 -12 -21 -281 -215 -326 -234 -85 -36 -1613 -464
-2248 -629 -516 -134 -1737 -434 -2136 -525 -186 -43 -236 -50 -1039 -160
-1254 -172 -1515 -211 -1534 -231 -8 -8 109 -10 449 -6 668 8 992 36 2405 207
614 75 1279 145 1491 157 77 5 90 3 135 -20 106 -54 214 -155 252 -235 34 -75
28 -132 -26 -242 -30 -61 -58 -100 -97 -136 -30 -28 -55 -53 -55 -56 0 -3 28
-8 62 -10 56 -4 65 -8 93 -41 73 -84 109 -327 63 -422 -20 -41 -21 -50 -10
-90 17 -63 15 -93 -8 -160 -26 -74 -25 -87 5 -179 14 -42 29 -113 34 -158 12
-103 10 -98 93 -245 38 -68 68 -131 66 -140 -2 -10 -26 -30 -53 -45 -72 -39
-85 -59 -85 -132 0 -96 -4 -102 -86 -141 -48 -23 -101 -60 -150 -105 -92 -83
-145 -106 -282 -120 -173 -18 -254 -28 -1162 -145 -1004 -129 -1374 -174
-1695 -205 -121 -12 -234 -28 -252 -35 -20 -8 -39 -28 -52 -52 -10 -21 -36
-54 -56 -73 -20 -19 -45 -51 -55 -71 -10 -19 -26 -41 -34 -48 -29 -24 -18 -33
32 -26 46 6 51 5 75 -25 37 -43 136 -221 148 -264 14 -52 -4 -106 -58 -173
l-46 -56 8 -56 c10 -69 10 -153 0 -247 -7 -69 -6 -74 37 -175 24 -57 50 -125
56 -151 7 -27 17 -68 23 -92 8 -31 25 -58 60 -92 27 -27 49 -55 49 -64 0 -21
-42 -59 -100 -93 -56 -31 -68 -54 -72 -139 -3 -59 -8 -72 -33 -99 -17 -16 -53
-44 -81 -60 -29 -16 -73 -54 -98 -83 -78 -91 -105 -100 -499 -156 -188 -27
-822 -121 -1408 -209 l-1065 -161 -95 16 c-139 22 -229 47 -450 125 -286 101
-419 139 -724 208 -149 34 -295 70 -327 80 -31 11 -110 55 -176 99 -66 44
-147 94 -180 112 -91 48 -92 50 -97 183 l-5 116 62 45 c78 55 94 73 145 161
52 92 67 130 59 157 -3 13 -51 77 -106 143 -169 200 -230 299 -230 373 0 32
35 197 50 237 19 50 12 91 -24 138 -52 68 -57 82 -46 112 17 44 11 95 -25 230
-20 77 -35 154 -35 188 0 53 3 61 40 101 22 24 69 58 106 76 69 34 324 102
443 119 98 13 89 15 1030 -179 281 -57 381 -71 381 -51 0 25 -120 58 -442 122
-435 86 -813 141 -1088 159 -101 6 -256 26 -400 50 -481 82 -633 103 -1050
145 -691 70 -716 78 -965 308 l-79 74 12 65 c7 36 12 92 12 124 0 71 12 87 96
137 115 69 175 209 128 300 -10 18 -45 63 -80 100 -48 52 -77 98 -122 190 -33
67 -69 130 -80 141 -12 10 -45 22 -74 26 -49 7 -50 8 -14 9 22 0 37 3 34 6 -7
8 -535 -12 -1048 -40 -655 -35 -826 -40 -880 -25 -36 9 -61 28 -125 94 -44 46
-107 101 -140 123 -77 52 -90 67 -87 106 5 62 43 230 57 250 7 11 47 43 87 71
86 61 178 174 178 219 0 23 -24 53 -117 151 -65 67 -126 137 -135 156 -99 203
-113 244 -113 320 1 66 5 83 37 146 l37 71 -45 -5 c-51 -5 -47 -23 -49 173 -2
123 -4 135 -38 229 -90 241 -20 355 290 471 152 58 295 69 2023 160 1187 63
1537 83 1745 100 1853 159 2336 205 2890 280 780 105 1674 228 1964 270 134
19 256 35 271 35 34 0 86 25 71 35 -6 3 -143 1 -303 -4 -578 -21 -948 -32
-1883 -56 -1157 -30 -1908 -52 -2280 -65 -898 -32 -1384 -76 -2595 -235 -815
-107 -2790 -366 -3645 -479 -478 -63 -917 -120 -973 -126 l-104 -12 -41 40
c-93 89 -209 160 -300 183 -25 6 -48 17 -51 24 -2 7 2 37 10 67 7 29 14 85 14
123 0 101 9 113 110 147 46 15 91 34 98 42 15 14 72 197 72 229 0 9 -22 45
-48 80 -27 34 -59 79 -71 100 -13 21 -47 56 -76 77 -46 34 -53 44 -58 82 -14
96 -28 141 -67 205 -22 36 -42 81 -46 98 -10 56 33 115 127 176 27 17 47 35
44 39 -3 4 -20 11 -39 14 -37 7 -80 37 -96 67 -6 10 -17 72 -26 136 -8 65 -22
149 -30 186 -30 145 -9 226 82 306 85 74 186 111 349 126 76 7 146 21 270 54
135 36 514 88 2415 331 476 61 1279 165 1785 231 2142 280 2030 267 2400 279
365 12 481 18 675 35 355 32 743 55 1375 80 1049 41 2162 52 3655 35z"/>
<path d="M16748 14133 c83 -2 221 -2 305 0 83 1 15 3 -153 3 -168 0 -236 -2
-152 -3z"/>
<path d="M17942 14133 c70 -2 187 -2 260 0 73 1 16 3 -127 3 -143 0 -203 -2
-133 -3z"/>
<path d="M16078 14123 c45 -2 119 -2 165 0 45 1 8 3 -83 3 -91 0 -128 -2 -82
-3z"/>
<path d="M18563 14123 c31 -2 83 -2 115 0 31 2 5 3 -58 3 -63 0 -89 -1 -57 -3z"/>
<path d="M15618 14113 c34 -2 90 -2 125 0 34 2 6 3 -63 3 -69 0 -97 -1 -62 -3z"/>
<path d="M18833 14113 c15 -2 37 -2 50 0 12 2 0 4 -28 4 -27 0 -38 -2 -22 -4z"/>
<path d="M15233 14103 c31 -2 83 -2 115 0 31 2 5 3 -58 3 -63 0 -89 -1 -57 -3z"/>
<path d="M18978 14103 c12 -2 32 -2 45 0 12 2 2 4 -23 4 -25 0 -35 -2 -22 -4z"/>
<path d="M14918 14093 c29 -2 74 -2 100 0 26 2 2 3 -53 3 -55 0 -76 -1 -47 -3z"/>
<path d="M19108 14093 c12 -2 32 -2 45 0 12 2 2 4 -23 4 -25 0 -35 -2 -22 -4z"/>
<path d="M14628 14083 c23 -2 61 -2 85 0 23 2 4 4 -43 4 -47 0 -66 -2 -42 -4z"/>
<path d="M19238 14083 c12 -2 30 -2 40 0 9 3 -1 5 -23 4 -22 0 -30 -2 -17 -4z"/>
<path d="M14373 14073 c20 -2 54 -2 75 0 20 2 3 4 -38 4 -41 0 -58 -2 -37 -4z"/>
<path d="M19358 14073 c12 -2 30 -2 40 0 9 3 -1 5 -23 4 -22 0 -30 -2 -17 -4z"/>
<path d="M19478 14063 c12 -2 32 -2 45 0 12 2 2 4 -23 4 -25 0 -35 -2 -22 -4z"/>
<path d="M19588 14053 c12 -2 30 -2 40 0 9 3 -1 5 -23 4 -22 0 -30 -2 -17 -4z"/>
<path d="M19703 14043 c9 -2 25 -2 35 0 9 3 1 5 -18 5 -19 0 -27 -2 -17 -5z"/>
<path d="M19813 14033 c9 -2 25 -2 35 0 9 3 1 5 -18 5 -19 0 -27 -2 -17 -5z"/>
<path d="M19918 14023 c12 -2 30 -2 40 0 9 3 -1 5 -23 4 -22 0 -30 -2 -17 -4z"/>
<path d="M20023 14013 c9 -2 25 -2 35 0 9 3 1 5 -18 5 -19 0 -27 -2 -17 -5z"/>
<path d="M20133 14003 c9 -2 23 -2 30 0 6 3 -1 5 -18 5 -16 0 -22 -2 -12 -5z"/>
<path d="M20233 13993 c9 -2 25 -2 35 0 9 3 1 5 -18 5 -19 0 -27 -2 -17 -5z"/>
<path d="M20333 13983 c9 -2 25 -2 35 0 9 3 1 5 -18 5 -19 0 -27 -2 -17 -5z"/>
<path d="M20433 13973 c9 -2 23 -2 30 0 6 3 -1 5 -18 5 -16 0 -22 -2 -12 -5z"/>
<path d="M20523 13963 c9 -2 25 -2 35 0 9 3 1 5 -18 5 -19 0 -27 -2 -17 -5z"/>
<path d="M20618 13953 c12 -2 30 -2 40 0 9 3 -1 5 -23 4 -22 0 -30 -2 -17 -4z"/>
<path d="M20708 13943 c6 -2 18 -2 25 0 6 3 1 5 -13 5 -14 0 -19 -2 -12 -5z"/>
<path d="M20793 13933 c9 -2 23 -2 30 0 6 3 -1 5 -18 5 -16 0 -22 -2 -12 -5z"/>
<path d="M20873 13923 c9 -2 23 -2 30 0 6 3 -1 5 -18 5 -16 0 -22 -2 -12 -5z"/>
<path d="M13538 11293 c7 -3 16 -2 19 1 4 3 -2 6 -13 5 -11 0 -14 -3 -6 -6z"/>
<path d="M13348 11263 c7 -3 16 -2 19 1 4 3 -2 6 -13 5 -11 0 -14 -3 -6 -6z"/>
<path d="M13278 11253 c7 -3 16 -2 19 1 4 3 -2 6 -13 5 -11 0 -14 -3 -6 -6z"/>
<path d="M13198 11243 c7 -3 16 -2 19 1 4 3 -2 6 -13 5 -11 0 -14 -3 -6 -6z"/>
<path d="M13128 11233 c7 -3 16 -2 19 1 4 3 -2 6 -13 5 -11 0 -14 -3 -6 -6z"/>
<path d="M13038 11223 c6 -2 18 -2 25 0 6 3 1 5 -13 5 -14 0 -19 -2 -12 -5z"/>
<path d="M12958 11213 c7 -3 16 -2 19 1 4 3 -2 6 -13 5 -11 0 -14 -3 -6 -6z"/>
<path d="M12868 11203 c7 -3 16 -2 19 1 4 3 -2 6 -13 5 -11 0 -14 -3 -6 -6z"/>
<path d="M12768 11193 c6 -2 18 -2 25 0 6 3 1 5 -13 5 -14 0 -19 -2 -12 -5z"/>
<path d="M12668 11183 c6 -2 18 -2 25 0 6 3 1 5 -13 5 -14 0 -19 -2 -12 -5z"/>
<path d="M12578 11173 c7 -3 16 -2 19 1 4 3 -2 6 -13 5 -11 0 -14 -3 -6 -6z"/>
<path d="M12468 11163 c6 -2 18 -2 25 0 6 3 1 5 -13 5 -14 0 -19 -2 -12 -5z"/>
<path d="M12368 11153 c6 -2 18 -2 25 0 6 3 1 5 -13 5 -14 0 -19 -2 -12 -5z"/>
<path d="M12268 11143 c6 -2 18 -2 25 0 6 3 1 5 -13 5 -14 0 -19 -2 -12 -5z"/>
<path d="M12158 11133 c6 -2 18 -2 25 0 6 3 1 5 -13 5 -14 0 -19 -2 -12 -5z"/>
<path d="M12058 11123 c6 -2 18 -2 25 0 6 3 1 5 -13 5 -14 0 -19 -2 -12 -5z"/>
<path d="M11948 11113 c6 -2 18 -2 25 0 6 3 1 5 -13 5 -14 0 -19 -2 -12 -5z"/>
<path d="M11838 11103 c6 -2 18 -2 25 0 6 3 1 5 -13 5 -14 0 -19 -2 -12 -5z"/>
<path d="M11738 11093 c6 -2 18 -2 25 0 6 3 1 5 -13 5 -14 0 -19 -2 -12 -5z"/>
<path d="M11628 11083 c6 -2 18 -2 25 0 6 3 1 5 -13 5 -14 0 -19 -2 -12 -5z"/>
<path d="M11518 11073 c6 -2 18 -2 25 0 6 3 1 5 -13 5 -14 0 -19 -2 -12 -5z"/>
<path d="M11408 11063 c6 -2 18 -2 25 0 6 3 1 5 -13 5 -14 0 -19 -2 -12 -5z"/>
<path d="M11298 11053 c6 -2 18 -2 25 0 6 3 1 5 -13 5 -14 0 -19 -2 -12 -5z"/>
<path d="M11188 11043 c6 -2 18 -2 25 0 6 3 1 5 -13 5 -14 0 -19 -2 -12 -5z"/>
<path d="M11078 11033 c6 -2 18 -2 25 0 6 3 1 5 -13 5 -14 0 -19 -2 -12 -5z"/>
<path d="M10968 11023 c6 -2 18 -2 25 0 6 3 1 5 -13 5 -14 0 -19 -2 -12 -5z"/>
<path d="M10863 11013 c9 -2 23 -2 30 0 6 3 -1 5 -18 5 -16 0 -22 -2 -12 -5z"/>
<path d="M10758 11003 c6 -2 18 -2 25 0 6 3 1 5 -13 5 -14 0 -19 -2 -12 -5z"/>
<path d="M10648 10993 c6 -2 18 -2 25 0 6 3 1 5 -13 5 -14 0 -19 -2 -12 -5z"/>
<path d="M10538 10983 c6 -2 18 -2 25 0 6 3 1 5 -13 5 -14 0 -19 -2 -12 -5z"/>
<path d="M10428 10973 c6 -2 18 -2 25 0 6 3 1 5 -13 5 -14 0 -19 -2 -12 -5z"/>
<path d="M10318 10963 c6 -2 18 -2 25 0 6 3 1 5 -13 5 -14 0 -19 -2 -12 -5z"/>
<path d="M10208 10953 c6 -2 18 -2 25 0 6 3 1 5 -13 5 -14 0 -19 -2 -12 -5z"/>
<path d="M10098 10943 c6 -2 18 -2 25 0 6 3 1 5 -13 5 -14 0 -19 -2 -12 -5z"/>
<path d="M9988 10933 c6 -2 18 -2 25 0 6 3 1 5 -13 5 -14 0 -19 -2 -12 -5z"/>
<path d="M9878 10923 c6 -2 18 -2 25 0 6 3 1 5 -13 5 -14 0 -19 -2 -12 -5z"/>
<path d="M9768 10913 c6 -2 18 -2 25 0 6 3 1 5 -13 5 -14 0 -19 -2 -12 -5z"/>
<path d="M9658 10903 c6 -2 18 -2 25 0 6 3 1 5 -13 5 -14 0 -19 -2 -12 -5z"/>
<path d="M9553 10893 c9 -2 23 -2 30 0 6 3 -1 5 -18 5 -16 0 -22 -2 -12 -5z"/>
<path d="M9448 10883 c6 -2 18 -2 25 0 6 3 1 5 -13 5 -14 0 -19 -2 -12 -5z"/>
<path d="M9338 10873 c6 -2 18 -2 25 0 6 3 1 5 -13 5 -14 0 -19 -2 -12 -5z"/>
<path d="M9228 10863 c6 -2 18 -2 25 0 6 3 1 5 -13 5 -14 0 -19 -2 -12 -5z"/>
<path d="M9118 10853 c6 -2 18 -2 25 0 6 3 1 5 -13 5 -14 0 -19 -2 -12 -5z"/>
<path d="M9018 10843 c6 -2 18 -2 25 0 6 3 1 5 -13 5 -14 0 -19 -2 -12 -5z"/>
<path d="M8908 10833 c6 -2 18 -2 25 0 6 3 1 5 -13 5 -14 0 -19 -2 -12 -5z"/>
<path d="M8798 10823 c6 -2 18 -2 25 0 6 3 1 5 -13 5 -14 0 -19 -2 -12 -5z"/>
<path d="M8698 10813 c6 -2 18 -2 25 0 6 3 1 5 -13 5 -14 0 -19 -2 -12 -5z"/>
<path d="M8598 10803 c7 -3 16 -2 19 1 4 3 -2 6 -13 5 -11 0 -14 -3 -6 -6z"/>
<path d="M8488 10793 c6 -2 18 -2 25 0 6 3 1 5 -13 5 -14 0 -19 -2 -12 -5z"/>
<path d="M8388 10783 c6 -2 18 -2 25 0 6 3 1 5 -13 5 -14 0 -19 -2 -12 -5z"/>
<path d="M8288 10773 c7 -3 16 -2 19 1 4 3 -2 6 -13 5 -11 0 -14 -3 -6 -6z"/>
<path d="M8188 10763 c7 -3 16 -2 19 1 4 3 -2 6 -13 5 -11 0 -14 -3 -6 -6z"/>
<path d="M8088 10753 c7 -3 16 -2 19 1 4 3 -2 6 -13 5 -11 0 -14 -3 -6 -6z"/>
<path d="M7978 10743 c6 -2 18 -2 25 0 6 3 1 5 -13 5 -14 0 -19 -2 -12 -5z"/>
<path d="M7868 10733 c6 -2 18 -2 25 0 6 3 1 5 -13 5 -14 0 -19 -2 -12 -5z"/>
<path d="M7733 10723 c9 -2 25 -2 35 0 9 3 1 5 -18 5 -19 0 -27 -2 -17 -5z"/>
<path d="M7568 10713 c12 -2 30 -2 40 0 9 3 -1 5 -23 4 -22 0 -30 -2 -17 -4z"/>
</g>
</svg>
